<?xml version="1.0" encoding="us-ascii" standalone="no"?><svg xmlns="http://www.w3.org/2000/svg" xmlns:xlink="http://www.w3.org/1999/xlink" contentStyleType="text/css" height="638px" preserveAspectRatio="none" style="width:454px;height:638px;background:#FFFFFF;" version="1.1" viewBox="0 0 454 638" width="454px" zoomAndPan="magnify"><defs/><g><!--entity pacjent--><g id="elem_pacjent"><rect fill="#F1F1F1" height="37.6094" rx="2.5" ry="2.5" style="stroke:#181818;stroke-width:0.5;" width="67" x="7" y="399"/><text fill="#000000" font-family="sans-serif" font-size="14" lengthAdjust="spacing" textLength="47" x="17" y="423.5332">Pacjent</text></g><!--entity lekarz--><g id="elem_lekarz"><rect fill="#F1F1F1" height="37.6094" rx="2.5" ry="2.5" style="stroke:#181818;stroke-width:0.5;" width="62" x="89.5" y="105"/><text fill="#000000" font-family="sans-serif" font-size="14" lengthAdjust="spacing" textLength="42" x="99.5" y="129.5332">Lekarz</text></g><!--entity lek--><g id="elem_lek"><rect fill="#F1F1F1" height="37.6094" rx="2.5" ry="2.5" style="stroke:#181818;stroke-width:0.5;" width="43" x="131" y="399"/><text fill="#000000" font-family="sans-serif" font-size="14" lengthAdjust="spacing" textLength="23" x="141" y="423.5332">Lek</text></g><!--entity substancja--><g id="elem_substancja"><rect fill="#F1F1F1" height="37.6094" rx="2.5" ry="2.5" style="stroke:#181818;stroke-width:0.5;" width="90" x="37.5" y="595"/><text fill="#000000" font-family="sans-serif" font-size="14" lengthAdjust="spacing" textLength="70" x="47.5" y="619.5332">Substancja</text></g><!--entity apteka--><g id="elem_apteka"><rect fill="#F1F1F1" height="37.6094" rx="2.5" ry="2.5" style="stroke:#181818;stroke-width:0.5;" width="64" x="256.5" y="203"/><text fill="#000000" font-family="sans-serif" font-size="14" lengthAdjust="spacing" textLength="44" x="266.5" y="227.5332">Apteka</text></g><!--entity aptekarz--><g id="elem_aptekarz"><rect fill="#F1F1F1" height="37.6094" rx="2.5" ry="2.5" style="stroke:#181818;stroke-width:0.5;" width="75" x="229" y="105"/><text fill="#000000" font-family="sans-serif" font-size="14" lengthAdjust="spacing" textLength="55" x="239" y="129.5332">Aptekarz</text></g><!--entity specjalizacja--><g id="elem_specjalizacja"><rect fill="#F1F1F1" height="37.6094" rx="2.5" ry="2.5" style="stroke:#181818;stroke-width:0.5;" width="101" x="49" y="203"/><text fill="#000000" font-family="sans-serif" font-size="14" lengthAdjust="spacing" textLength="81" x="59" y="227.5332">Specjalizacja</text></g><!--entity recepta--><g id="elem_recepta"><rect fill="#F1F1F1" height="37.6094" rx="2.5" ry="2.5" style="stroke:#181818;stroke-width:0.5;" width="73" x="49" y="301"/><text fill="#000000" font-family="sans-serif" font-size="14" lengthAdjust="spacing" textLength="53" x="59" y="325.5332">Recepta</text></g><!--entity alergia--><g id="elem_alergia"><rect fill="#F1F1F1" height="37.6094" rx="2.5" ry="2.5" style="stroke:#181818;stroke-width:0.5;" width="64" x="8.5" y="497"/><text fill="#000000" font-family="sans-serif" font-size="14" lengthAdjust="spacing" textLength="44" x="18.5" y="521.5332">Alergia</text></g><!--entity u??ytkownik--><g id="elem_u&#313;&#317;ytkownik"><rect fill="#F1F1F1" height="37.6094" rx="2.5" ry="2.5" style="stroke:#181818;stroke-width:0.5;" width="88" x="76.5" y="7"/><text fill="#000000" font-family="sans-serif" font-size="14" lengthAdjust="spacing" textLength="68" x="86.5" y="31.5332">Uzytkownik</text></g><!--entity godziny_otwarcia--><g id="elem_godziny_otwarcia"><rect fill="#F1F1F1" height="37.6094" rx="2.5" ry="2.5" style="stroke:#181818;stroke-width:0.5;" width="127" x="229" y="301"/><text fill="#000000" font-family="sans-serif" font-size="14" lengthAdjust="spacing" textLength="107" x="239" y="325.5332">Godziny otwarcia</text></g><!--entity kategoria_lekow--><g id="elem_kategoria_lekow"><rect fill="#F1F1F1" height="37.6094" rx="2.5" ry="2.5" style="stroke:#181818;stroke-width:0.5;" width="120" x="178.5" y="497"/><text fill="#000000" font-family="sans-serif" font-size="14" lengthAdjust="spacing" textLength="100" x="188.5" y="521.5332">Kategoria lekow</text></g><!--entity adres--><g id="elem_adres"><rect fill="#F1F1F1" height="37.6094" rx="2.5" ry="2.5" style="stroke:#181818;stroke-width:0.5;" width="57" x="391" y="301"/><text fill="#000000" font-family="sans-serif" font-size="14" lengthAdjust="spacing" textLength="37" x="401" y="325.5332">Adres</text></g><!--link apteka to lek--><g id="link_apteka_lek"><path codeLine="47" d="M238.35,229 C203.51,229 170.83,229 170.83,229 C170.83,229 170.83,332.79 170.83,380.84 " fill="none" id="apteka-lek" style="stroke:#181818;stroke-width:1.0;"/><line style="stroke:#181818;stroke-width:1.0;" x1="248.35" x2="256.35" y1="229" y2="223"/><line style="stroke:#181818;stroke-width:1.0;" x1="248.35" x2="256.35" y1="229" y2="235"/><line style="stroke:#181818;stroke-width:1.0;" x1="248.35" x2="256.35" y1="229" y2="229"/><ellipse cx="242.35" cy="229" fill="none" rx="4" ry="4" style="stroke:#181818;stroke-width:1.0;"/><line style="stroke:#181818;stroke-width:1.0;" x1="170.83" x2="176.83" y1="390.84" y2="398.84"/><line style="stroke:#181818;stroke-width:1.0;" x1="170.83" x2="164.83" y1="390.84" y2="398.84"/><line style="stroke:#181818;stroke-width:1.0;" x1="170.83" x2="170.83" y1="390.84" y2="398.84"/><ellipse cx="170.83" cy="384.84" fill="none" rx="4" ry="4" style="stroke:#181818;stroke-width:1.0;"/></g><!--link u??ytkownik to pacjent--><g id="link_u&#313;&#317;ytkownik_pacjent"><path codeLine="48" d="M68.42,26 C44.59,26 28,26 28,26 C28,26 28,305.13 28,383.83 " fill="none" id="u&#313;&#317;ytkownik-pacjent" style="stroke:#181818;stroke-width:1.0;"/><line style="stroke:#181818;stroke-width:1.0;" x1="72.42" x2="72.42" y1="22" y2="30"/><line style="stroke:#181818;stroke-width:1.0;" x1="69.42" x2="69.42" y1="22" y2="30"/><line style="stroke:#181818;stroke-width:1.0;" x1="68.42" x2="76.42" y1="26" y2="26"/><line style="stroke:#181818;stroke-width:1.0;" x1="28" x2="28" y1="387.83" y2="398.83"/><ellipse cx="28" cy="387.83" fill="none" rx="4" ry="4" style="stroke:#181818;stroke-width:1.0;"/><line style="stroke:#181818;stroke-width:1.0;" x1="32" x2="24" y1="394.83" y2="394.83"/></g><!--link u??ytkownik to lekarz--><g id="link_u&#313;&#317;ytkownik_lekarz"><path codeLine="49" d="M120.5,53.36 C120.5,70.54 120.5,72.51 120.5,89.68 " fill="none" id="u&#313;&#317;ytkownik-lekarz" style="stroke:#181818;stroke-width:1.0;"/><line style="stroke:#181818;stroke-width:1.0;" x1="116.5" x2="124.5" y1="49.36" y2="49.36"/><line style="stroke:#181818;stroke-width:1.0;" x1="116.5" x2="124.5" y1="52.36" y2="52.36"/><line style="stroke:#181818;stroke-width:1.0;" x1="120.5" x2="120.5" y1="53.36" y2="45.36"/><line style="stroke:#181818;stroke-width:1.0;" x1="120.5" x2="120.5" y1="93.68" y2="104.68"/><ellipse cx="120.5" cy="93.68" fill="none" rx="4" ry="4" style="stroke:#181818;stroke-width:1.0;"/><line style="stroke:#181818;stroke-width:1.0;" x1="124.5" x2="116.5" y1="100.68" y2="100.68"/></g><!--link u??ytkownik to aptekarz--><g id="link_u&#313;&#317;ytkownik_aptekarz"><path codeLine="50" d="M160.17,53.06 C160.17,80.01 160.17,118 160.17,118 C160.17,118 183.15,118 213.71,118 " fill="none" id="u&#313;&#317;ytkownik-aptekarz" style="stroke:#181818;stroke-width:1.0;"/><line style="stroke:#181818;stroke-width:1.0;" x1="156.17" x2="164.17" y1="49.06" y2="49.06"/><line style="stroke:#181818;stroke-width:1.0;" x1="156.17" x2="164.17" y1="52.06" y2="52.06"/><line style="stroke:#181818;stroke-width:1.0;" x1="160.17" x2="160.17" y1="53.06" y2="45.06"/><line style="stroke:#181818;stroke-width:1.0;" x1="217.71" x2="228.71" y1="118" y2="118"/><ellipse cx="217.71" cy="118" fill="none" rx="4" ry="4" style="stroke:#181818;stroke-width:1.0;"/><line style="stroke:#181818;stroke-width:1.0;" x1="224.71" x2="224.71" y1="114" y2="122"/></g><!--link apteka to recepta--><g id="link_apteka_recepta"><path codeLine="51" d="M238.44,216 C202.64,216 167.67,216 167.67,216 C167.67,216 167.67,320 167.67,320 C167.67,320 162.13,320 140.26,320 " fill="none" id="apteka-recepta" style="stroke:#181818;stroke-width:1.0;"/><line style="stroke:#181818;stroke-width:1.0;" x1="248.44" x2="256.44" y1="216" y2="210"/><line style="stroke:#181818;stroke-width:1.0;" x1="248.44" x2="256.44" y1="216" y2="222"/><line style="stroke:#181818;stroke-width:1.0;" x1="248.44" x2="256.44" y1="216" y2="216"/><ellipse cx="242.44" cy="216" fill="none" rx="4" ry="4" style="stroke:#181818;stroke-width:1.0;"/><line style="stroke:#181818;stroke-width:1.0;" x1="130.26" x2="122.26" y1="320" y2="326"/><line style="stroke:#181818;stroke-width:1.0;" x1="130.26" x2="122.26" y1="320" y2="314"/><line style="stroke:#181818;stroke-width:1.0;" x1="130.26" x2="122.26" y1="320" y2="320"/><ellipse cx="136.26" cy="320" fill="none" rx="4" ry="4" style="stroke:#181818;stroke-width:1.0;"/></g><!--link lekarz to specjalizacja--><g id="link_lekarz_specjalizacja"><path codeLine="52" d="M119.75,161.36 C119.75,178.54 119.75,167.51 119.75,184.68 " fill="none" id="lekarz-specjalizacja" style="stroke:#181818;stroke-width:1.0;"/><line style="stroke:#181818;stroke-width:1.0;" x1="119.75" x2="113.75" y1="151.36" y2="143.36"/><line style="stroke:#181818;stroke-width:1.0;" x1="119.75" x2="125.75" y1="151.36" y2="143.36"/><line style="stroke:#181818;stroke-width:1.0;" x1="119.75" x2="119.75" y1="151.36" y2="143.36"/><ellipse cx="119.75" cy="157.36" fill="none" rx="4" ry="4" style="stroke:#181818;stroke-width:1.0;"/><line style="stroke:#181818;stroke-width:1.0;" x1="119.75" x2="125.75" y1="194.68" y2="202.68"/><line style="stroke:#181818;stroke-width:1.0;" x1="119.75" x2="113.75" y1="194.68" y2="202.68"/><line style="stroke:#181818;stroke-width:1.0;" x1="119.75" x2="119.75" y1="194.68" y2="202.68"/><ellipse cx="119.75" cy="188.68" fill="none" rx="4" ry="4" style="stroke:#181818;stroke-width:1.0;"/></g><!--link pacjent to alergia--><g id="link_pacjent_alergia"><path codeLine="53" d="M40.5,445.36 C40.5,462.54 40.5,461.51 40.5,478.68 " fill="none" id="pacjent-alergia" style="stroke:#181818;stroke-width:1.0;"/><line style="stroke:#181818;stroke-width:1.0;" x1="36.5" x2="44.5" y1="441.36" y2="441.36"/><line style="stroke:#181818;stroke-width:1.0;" x1="36.5" x2="44.5" y1="444.36" y2="444.36"/><line style="stroke:#181818;stroke-width:1.0;" x1="40.5" x2="40.5" y1="445.36" y2="437.36"/><line style="stroke:#181818;stroke-width:1.0;" x1="40.5" x2="46.5" y1="488.68" y2="496.68"/><line style="stroke:#181818;stroke-width:1.0;" x1="40.5" x2="34.5" y1="488.68" y2="496.68"/><line style="stroke:#181818;stroke-width:1.0;" x1="40.5" x2="40.5" y1="488.68" y2="496.68"/><ellipse cx="40.5" cy="482.68" fill="none" rx="4" ry="4" style="stroke:#181818;stroke-width:1.0;"/></g><!--link lekarz to recepta--><g id="link_lekarz_recepta"><path codeLine="54" d="M159.5,131 C159.5,131 155.83,311 155.83,311 C155.83,311 157.33,311 140.31,311 " fill="none" id="lekarz-recepta" style="stroke:#181818;stroke-width:1.0;"/><line style="stroke:#181818;stroke-width:1.0;" x1="155.5" x2="155.5" y1="135" y2="127"/><line style="stroke:#181818;stroke-width:1.0;" x1="158.5" x2="158.5" y1="135" y2="127"/><line style="stroke:#181818;stroke-width:1.0;" x1="159.5" x2="151.5" y1="131" y2="131"/><line style="stroke:#181818;stroke-width:1.0;" x1="130.31" x2="122.31" y1="311" y2="317"/><line style="stroke:#181818;stroke-width:1.0;" x1="130.31" x2="122.31" y1="311" y2="305"/><line style="stroke:#181818;stroke-width:1.0;" x1="130.31" x2="122.31" y1="311" y2="311"/><ellipse cx="136.31" cy="311" fill="none" rx="4" ry="4" style="stroke:#181818;stroke-width:1.0;"/></g><!--link recepta to pacjent--><g id="link_recepta_pacjent"><path codeLine="55" d="M61.5,357.36 C61.5,374.54 61.5,373.51 61.5,390.68 " fill="none" id="recepta-pacjent" style="stroke:#181818;stroke-width:1.0;"/><line style="stroke:#181818;stroke-width:1.0;" x1="61.5" x2="55.5" y1="347.36" y2="339.36"/><line style="stroke:#181818;stroke-width:1.0;" x1="61.5" x2="67.5" y1="347.36" y2="339.36"/><line style="stroke:#181818;stroke-width:1.0;" x1="61.5" x2="61.5" y1="347.36" y2="339.36"/><ellipse cx="61.5" cy="353.36" fill="none" rx="4" ry="4" style="stroke:#181818;stroke-width:1.0;"/><line style="stroke:#181818;stroke-width:1.0;" x1="65.5" x2="57.5" y1="394.68" y2="394.68"/><line style="stroke:#181818;stroke-width:1.0;" x1="65.5" x2="57.5" y1="391.68" y2="391.68"/><line style="stroke:#181818;stroke-width:1.0;" x1="61.5" x2="61.5" y1="390.68" y2="398.68"/></g><!--link recepta to lek--><g id="link_recepta_lek"><path codeLine="56" d="M140.19,330 C150.27,330 140.5,330 140.5,330 C140.5,330 140.5,365.02 140.5,390.91 " fill="none" id="recepta-lek" style="stroke:#181818;stroke-width:1.0;"/><line style="stroke:#181818;stroke-width:1.0;" x1="130.19" x2="122.19" y1="330" y2="336"/><line style="stroke:#181818;stroke-width:1.0;" x1="130.19" x2="122.19" y1="330" y2="324"/><line style="stroke:#181818;stroke-width:1.0;" x1="130.19" x2="122.19" y1="330" y2="330"/><ellipse cx="136.19" cy="330" fill="none" rx="4" ry="4" style="stroke:#181818;stroke-width:1.0;"/><line style="stroke:#181818;stroke-width:1.0;" x1="140.5" x2="146.5" y1="390.91" y2="398.91"/><line style="stroke:#181818;stroke-width:1.0;" x1="140.5" x2="134.5" y1="390.91" y2="398.91"/><line style="stroke:#181818;stroke-width:1.0;" x1="140.5" x2="140.5" y1="390.91" y2="398.91"/><line style="stroke:#181818;stroke-width:1.0;" x1="144.5" x2="136.5" y1="388.91" y2="388.91"/></g><!--link lek to substancja--><g id="link_lek_substancja"><path codeLine="57" d="M145.33,455.15 C145.33,504.47 145.33,614 145.33,614 C145.33,614 155.74,614 145.83,614 " fill="none" id="lek-substancja" style="stroke:#181818;stroke-width:1.0;"/><line style="stroke:#181818;stroke-width:1.0;" x1="145.33" x2="139.33" y1="445.15" y2="437.15"/><line style="stroke:#181818;stroke-width:1.0;" x1="145.33" x2="151.33" y1="445.15" y2="437.15"/><line style="stroke:#181818;stroke-width:1.0;" x1="145.33" x2="145.33" y1="445.15" y2="437.15"/><ellipse cx="145.33" cy="451.15" fill="none" rx="4" ry="4" style="stroke:#181818;stroke-width:1.0;"/><line style="stroke:#181818;stroke-width:1.0;" x1="135.83" x2="127.83" y1="614" y2="620"/><line style="stroke:#181818;stroke-width:1.0;" x1="135.83" x2="127.83" y1="614" y2="608"/><line style="stroke:#181818;stroke-width:1.0;" x1="135.83" x2="127.83" y1="614" y2="614"/><ellipse cx="141.83" cy="614" fill="none" rx="4" ry="4" style="stroke:#181818;stroke-width:1.0;"/></g><!--link lek to kategoria_lekow--><g id="link_lek_kategoria_lekow"><path codeLine="58" d="M159.67,455.36 C159.67,483.92 159.67,516 159.67,516 C159.67,516 159.56,516 170.35,516 " fill="none" id="lek-kategoria_lekow" style="stroke:#181818;stroke-width:1.0;"/><line style="stroke:#181818;stroke-width:1.0;" x1="159.67" x2="153.67" y1="445.36" y2="437.36"/><line style="stroke:#181818;stroke-width:1.0;" x1="159.67" x2="165.67" y1="445.36" y2="437.36"/><line style="stroke:#181818;stroke-width:1.0;" x1="159.67" x2="159.67" y1="445.36" y2="437.36"/><ellipse cx="159.67" cy="451.36" fill="none" rx="4" ry="4" style="stroke:#181818;stroke-width:1.0;"/><line style="stroke:#181818;stroke-width:1.0;" x1="170.35" x2="178.35" y1="516" y2="510"/><line style="stroke:#181818;stroke-width:1.0;" x1="170.35" x2="178.35" y1="516" y2="522"/><line style="stroke:#181818;stroke-width:1.0;" x1="170.35" x2="178.35" y1="516" y2="516"/><line style="stroke:#181818;stroke-width:1.0;" x1="168.35" x2="168.35" y1="512" y2="520"/></g><!--link apteka to adres--><g id="link_apteka_adres"><path codeLine="59" d="M328.55,222 C367.33,222 419.5,222 419.5,222 C419.5,222 419.5,264.08 419.5,292.64 " fill="none" id="apteka-adres" style="stroke:#181818;stroke-width:1.0;"/><line style="stroke:#181818;stroke-width:1.0;" x1="324.55" x2="324.55" y1="226" y2="218"/><line style="stroke:#181818;stroke-width:1.0;" x1="327.55" x2="327.55" y1="226" y2="218"/><line style="stroke:#181818;stroke-width:1.0;" x1="328.55" x2="320.55" y1="222" y2="222"/><line style="stroke:#181818;stroke-width:1.0;" x1="423.5" x2="415.5" y1="296.64" y2="296.64"/><line style="stroke:#181818;stroke-width:1.0;" x1="423.5" x2="415.5" y1="293.64" y2="293.64"/><line style="stroke:#181818;stroke-width:1.0;" x1="419.5" x2="419.5" y1="292.64" y2="300.64"/></g><!--link apteka to godziny_otwarcia--><g id="link_apteka_godziny_otwarcia"><path codeLine="60" d="M288.5,249.36 C288.5,266.54 288.5,275.51 288.5,292.68 " fill="none" id="apteka-godziny_otwarcia" style="stroke:#181818;stroke-width:1.0;"/><line style="stroke:#181818;stroke-width:1.0;" x1="284.5" x2="292.5" y1="245.36" y2="245.36"/><line style="stroke:#181818;stroke-width:1.0;" x1="284.5" x2="292.5" y1="248.36" y2="248.36"/><line style="stroke:#181818;stroke-width:1.0;" x1="288.5" x2="288.5" y1="249.36" y2="241.36"/><line style="stroke:#181818;stroke-width:1.0;" x1="292.5" x2="284.5" y1="296.68" y2="296.68"/><line style="stroke:#181818;stroke-width:1.0;" x1="292.5" x2="284.5" y1="293.68" y2="293.68"/><line style="stroke:#181818;stroke-width:1.0;" x1="288.5" x2="288.5" y1="292.68" y2="300.68"/></g><!--link aptekarz to apteka--><g id="link_aptekarz_apteka"><path codeLine="61" d="M280.25,161.36 C280.25,178.54 280.25,167.51 280.25,184.68 " fill="none" id="aptekarz-apteka" style="stroke:#181818;stroke-width:1.0;"/><line style="stroke:#181818;stroke-width:1.0;" x1="280.25" x2="274.25" y1="151.36" y2="143.36"/><line style="stroke:#181818;stroke-width:1.0;" x1="280.25" x2="286.25" y1="151.36" y2="143.36"/><line style="stroke:#181818;stroke-width:1.0;" x1="280.25" x2="280.25" y1="151.36" y2="143.36"/><ellipse cx="280.25" cy="157.36" fill="none" rx="4" ry="4" style="stroke:#181818;stroke-width:1.0;"/><line style="stroke:#181818;stroke-width:1.0;" x1="280.25" x2="286.25" y1="194.68" y2="202.68"/><line style="stroke:#181818;stroke-width:1.0;" x1="280.25" x2="274.25" y1="194.68" y2="202.68"/><line style="stroke:#181818;stroke-width:1.0;" x1="280.25" x2="280.25" y1="194.68" y2="202.68"/><ellipse cx="280.25" cy="188.68" fill="none" rx="4" ry="4" style="stroke:#181818;stroke-width:1.0;"/></g><!--link alergia to substancja--><g id="link_alergia_substancja"><path codeLine="62" d="M55,553.36 C55,570.54 55,559.51 55,576.68 " fill="none" id="alergia-substancja" style="stroke:#181818;stroke-width:1.0;"/><line style="stroke:#181818;stroke-width:1.0;" x1="55" x2="49" y1="543.36" y2="535.36"/><line style="stroke:#181818;stroke-width:1.0;" x1="55" x2="61" y1="543.36" y2="535.36"/><line style="stroke:#181818;stroke-width:1.0;" x1="55" x2="55" y1="543.36" y2="535.36"/><ellipse cx="55" cy="549.36" fill="none" rx="4" ry="4" style="stroke:#181818;stroke-width:1.0;"/><line style="stroke:#181818;stroke-width:1.0;" x1="55" x2="61" y1="586.68" y2="594.68"/><line style="stroke:#181818;stroke-width:1.0;" x1="55" x2="49" y1="586.68" y2="594.68"/><line style="stroke:#181818;stroke-width:1.0;" x1="55" x2="55" y1="586.68" y2="594.68"/><ellipse cx="55" cy="580.68" fill="none" rx="4" ry="4" style="stroke:#181818;stroke-width:1.0;"/></g><!--SRC=[XLBBJiGm3BpdAwAzxqSW8N600m9nNfckLR8jIPHcLVMn7yQ1stuOQHoNRLF4pHbFFBR7JQMq1GUVibOQVMTH6kS_Z10E2m-wh57kdg4ueVOx2Osq5Cj1N1QS9wp0zP5Int2BmUaiztf-Rq9Sd21IclcPCU-i3-KZ2sBu1oFr0kcHAreCvMlLmonwYsJy5opGUc8wYdFb6bsfKdCKPvnxQ2lJWbRutwHlVUS3LIjQs_dwTVrcXCYtx0Tpx9NkfF4jk28rKH9uO33JU0IFfN4X4rmnRVnKCNQ8M3xbqM53CqvHQYMPSJ7xlHccQcBPy3Y6nCZdivsamzdEiP4heMI5I3UNq8MLWaysLXhO6VwIK2x4tawLnjz-5p3DDzqnwyqkpcWWhHR9dK-2eN9StWfR-oNcyqr2z1PyNBcy-040]--></g></svg>